<?xml version="1.0" standalone="no"?>
<!DOCTYPE svg PUBLIC "-//W3C//DTD SVG 20010904//EN"
 "http://www.w3.org/TR/2001/REC-SVG-20010904/DTD/svg10.dtd">
<svg version="1.0" xmlns="http://www.w3.org/2000/svg"
 width="1024.000000pt" height="1024.000000pt" viewBox="0 0 1024.000000 1024.000000"
 preserveAspectRatio="xMidYMid meet">

<g transform="translate(0.000000,1024.000000) scale(0.100000,-0.100000)"
fill="#000000" stroke="none">
<path d="M1176 8840 c146 -29 300 -178 367 -356 l22 -59 3 -2428 c2 -2148 0
-2436 -13 -2494 -44 -191 -212 -370 -378 -403 -23 -4 480 -8 1118 -8 1031 -1
1154 1 1106 14 -155 41 -295 182 -354 353 l-22 66 -3 2405 c-2 1761 0 2423 9
2473 16 97 77 214 155 296 69 73 132 113 215 135 48 13 -75 15 -1106 14 -638
0 -1141 -4 -1119 -8z"/>
<path d="M6752 8783 c-12 -32 -231 -636 -486 -1342 -395 -1093 -460 -1280
-435 -1253 46 49 86 66 154 66 73 1 126 -24 167 -75 29 -36 240 -633 720
-2032 l180 -528 -6 -78 c-11 -122 -36 -191 -103 -284 -47 -63 -110 -114 -180
-143 l-58 -24 1200 1 c663 1 1178 5 1151 10 -165 27 -344 199 -424 406 -60
156 -648 1838 -782 2238 -141 421 -1056 3059 -1069 3083 -5 9 -15 -6 -29 -45z"/>
<path d="M4999 3958 c-195 -404 -580 -748 -949 -847 l-75 -20 930 0 c817 1
922 2 866 14 -183 40 -333 121 -459 247 -159 158 -247 357 -260 588 l-7 115
-46 -97z"/>
</g>
</svg>
